<svg xmlns="http://www.w3.org/2000/svg" viewBox="0 0 256 256" width="256" height="256" role="img" aria-label="Daily Bible Verse icon: a glowing cross above an open book">
  <defs>
    <linearGradient id="bg" x1="0" y1="0" x2="1" y2="1">
      <stop offset="0" stop-color="#8b5cf6"/>
      <stop offset="0.5" stop-color="#5b50e0"/>
      <stop offset="1" stop-color="#2e2a72"/>
    </linearGradient>
    <radialGradient id="glow" cx="0.5" cy="0.36" r="0.5">
      <stop offset="0" stop-color="#ffffff" stop-opacity="0.5"/>
      <stop offset="0.55" stop-color="#ffffff" stop-opacity="0.16"/>
      <stop offset="1" stop-color="#ffffff" stop-opacity="0"/>
    </radialGradient>
    <linearGradient id="cross" gradientUnits="userSpaceOnUse" x1="128" y1="42" x2="128" y2="146">
      <stop offset="0" stop-color="#ffffff"/>
      <stop offset="1" stop-color="#d8d2ff"/>
    </linearGradient>
    <linearGradient id="pageL" gradientUnits="userSpaceOnUse" x1="128" y1="175" x2="50" y2="175">
      <stop offset="0" stop-color="#ffffff"/>
      <stop offset="1" stop-color="#d5cffb"/>
    </linearGradient>
    <linearGradient id="pageR" gradientUnits="userSpaceOnUse" x1="128" y1="175" x2="206" y2="175">
      <stop offset="0" stop-color="#ffffff"/>
      <stop offset="1" stop-color="#d5cffb"/>
    </linearGradient>
    <linearGradient id="fold" gradientUnits="userSpaceOnUse" x1="120" y1="0" x2="136" y2="0">
      <stop offset="0" stop-color="#4338ca" stop-opacity="0"/>
      <stop offset="0.5" stop-color="#4338ca" stop-opacity="0.35"/>
      <stop offset="1" stop-color="#4338ca" stop-opacity="0"/>
    </linearGradient>
    <filter id="blur8" x="-60%" y="-60%" width="220%" height="220%">
      <feGaussianBlur stdDeviation="8"/>
    </filter>
    <filter id="blur12" x="-60%" y="-60%" width="220%" height="220%">
      <feGaussianBlur stdDeviation="12"/>
    </filter>
  </defs>

  <rect x="8" y="8" width="240" height="240" rx="56" fill="url(#bg)"/>
  <rect x="11" y="11" width="234" height="234" rx="53" fill="none" stroke="#ffffff" stroke-opacity="0.16" stroke-width="2"/>
  <path d="M12 100 C64 66 192 66 244 100 L244 62 A50 50 0 0 0 194 12 L62 12 A50 50 0 0 0 12 62 Z" fill="#ffffff" opacity="0.08"/>

  <circle cx="128" cy="94" r="76" fill="url(#glow)"/>

  <g filter="url(#blur8)" opacity="0.6" fill="#ffffff">
    <rect x="118" y="44" width="20" height="100" rx="10"/>
    <rect x="92" y="72" width="72" height="20" rx="10"/>
  </g>
  <g fill="url(#cross)">
    <rect x="118" y="44" width="20" height="100" rx="10"/>
    <rect x="92" y="72" width="72" height="20" rx="10"/>
  </g>

  <ellipse cx="128" cy="212" rx="80" ry="12" fill="#a78bfa" opacity="0.35" filter="url(#blur12)"/>

  <g>
    <path d="M128 156 C108 142 80 138 52 144 L52 196 C80 190 108 194 128 206 Z" fill="url(#pageL)"/>
    <path d="M128 156 C148 142 176 138 204 144 L204 196 C176 190 148 194 128 206 Z" fill="url(#pageR)"/>
    <rect x="120" y="152" width="16" height="56" fill="url(#fold)"/>
    <g stroke="#6d64e8" stroke-width="4" stroke-linecap="round" opacity="0.35" fill="none">
      <path d="M66 158 C82 155 98 158 112 164"/>
      <path d="M66 172 C82 169 98 172 112 178"/>
      <path d="M144 164 C158 158 174 155 190 158"/>
      <path d="M144 178 C158 172 174 169 190 172"/>
    </g>
  </g>
</svg>
